<svg xmlns="http://www.w3.org/2000/svg" xmlns:xlink="http://www.w3.org/1999/xlink" viewBox="0 0 382.81 171.34"><defs><style>.cls-1{fill:url(#名称未設定グラデーション_26);}.cls-2{fill:url(#名称未設定グラデーション_26-2);}.cls-3{fill:url(#名称未設定グラデーション_4);}.cls-4{fill:url(#名称未設定グラデーション_27);}.cls-5{fill:url(#名称未設定グラデーション_26-3);}</style><linearGradient id="名称未設定グラデーション_26" x1="161.02" y1="59.59" x2="161.02" y2="171.34" gradientUnits="userSpaceOnUse"><stop offset="0" stop-color="#82dc8c"/><stop offset="0.5" stop-color="#00b478"/><stop offset="0.99" stop-color="#006e7d"/></linearGradient><linearGradient id="名称未設定グラデーション_26-2" x1="138.15" y1="85.94" x2="331.49" y2="85.94" xlink:href="#名称未設定グラデーション_26"/><linearGradient id="名称未設定グラデーション_4" x1="295.08" y1="34.78" x2="295.11" y2="34.78" gradientUnits="userSpaceOnUse"><stop offset="0.01" stop-color="#69b995"/><stop offset="1" stop-color="#00a189"/></linearGradient><linearGradient id="名称未設定グラデーション_27" x1="295.65" y1="34.17" x2="382.81" y2="34.17" gradientUnits="userSpaceOnUse"><stop offset="0.01" stop-color="#006e7d"/><stop offset="0.5" stop-color="#00b478"/><stop offset="1" stop-color="#82dc8c"/></linearGradient><linearGradient id="名称未設定グラデーション_26-3" x1="133.91" y1="-492.86" x2="126.73" y2="-463.03" gradientTransform="translate(253.72 510.52) rotate(-13.53)" xlink:href="#名称未設定グラデーション_26"/></defs><g id="レイヤー_2" data-name="レイヤー 2"><g id="design"><path class="cls-1" d="M121.74,93c2.06-7.44,4.37-13.53,3.79-21.57-.44-6-2.84-9.38-8-11-6.86-2.12-13,0-18.74,4.22-7.28,5.42-12.59,11.66-17.57,19.56-.42.67-.86,1.33-1.47,2.28-.23-3.69-.32-6.81-.63-9.91C77.94,65.24,71.92,59.4,61.83,59.69c-6,.17-11.25,2.67-16.18,6.22-2.79,2-5.41,4.35-8.15,6.59-8.49-6.85-18-7.73-28-6.13C5,67.11,2.35,71.43,3.26,76.53c.51,2.87,1.51,3.58,4.09,3.41a67.31,67.31,0,0,1,9.73-.16,16.35,16.35,0,0,1,10.57,4.75c-.56.88-1,1.62-1.5,2.34A173.56,173.56,0,0,0,2.73,138.68c-1.91,7.16-3.4,14.47-2.42,22,1.23,9.51,7.43,13.31,14.88,8.68A36.42,36.42,0,0,0,25,160.11c9.36-12.78,14.49-28,18.37-43.79,2.67-10.89,4.22-22,.73-33.12a2.11,2.11,0,0,1,.44-1.65c3.42-3.63,7.15-6.75,11.86-7.82,5.46-1.25,9.22,1.58,10,7.79a51,51,0,0,1,.17,11c-1.26,12.86-4.65,25.17-8.19,37.4-3.29,11.36-6.75,23-10.15,34.36-.43,1.43-1,2.81.59,3.85,4.48,3,11.53.08,13.26-5.38,5.83-18.43,11.54-37.34,19.46-54.81,4.83-10.67,10-19.79,17.55-28.42A22.65,22.65,0,0,1,106,74c4.15-2,7,.53,6.54,5.66A35.34,35.34,0,0,1,111,87.57c-3.45,12.16-7.83,27.5-11.24,39.67-2.29,8.18-3.86,16.56-3.25,25.24.58,8.36,4.82,16.79,11.64,16.79,16.54,0,4-16.42,4-16.42-5-5.94-2.54-15.34-1.13-20.56C114.23,120.26,118.42,105.05,121.74,93ZM13.46,156.67c-1.35-4.35-.64-8.45.2-12.43,3.57-17,10.3-32.43,18.9-47.05C36.17,108.07,22.72,149.6,13.46,156.67Zm165.14-5.38c.18,4.85.25,9.82.6,14.28a4.61,4.61,0,0,0,1.67,3.12c2.6,1.67,8.06-.47,9.5-3.42a124.24,124.24,0,0,1,18.1-27.18,21.75,21.75,0,0,1,1.83-1.65c.25,4.62.33,8.84.75,13,1.17,11.71,6.4,18.37,14.93,19.29a22.46,22.46,0,0,0,10.8-.3c9.1-2.33,16.72-8.42,23.12-17.4a19.46,19.46,0,0,0,1.31-2.7c.49.87.53.92.55,1,.26,1.08.49,2.18.78,3.25,2.56,9.25,6.81,14.64,14.39,16.33,5.21,1.16,10.07-.07,15.1-2.73,23-12.15,30-38.2,30-38.2s-12.34,31.22-39.46,31.22c-4.27,0-8.74-4.3-10.43-9.8-5-16.31-2.24-33,1-49.38.1-.5.75-1.14,1.14-1.14,7.67,0,15.35-.37,22.95,1.56,2.26.58,4.33-.85,5.26-3.6S303,90.63,301,89a7.58,7.58,0,0,0-3.9-1.76c-5.92-.6-11.85-1-17.78-1.39-.64,0-1.28,0-1.91,0a3.88,3.88,0,0,1,0-.78c.17-.56.35-1.12.55-1.66a43.85,43.85,0,0,1,6.68-12.74,8,8,0,0,0,.66-8.3c-1.19-2.43-3.56-3.51-5.65-2.19a13.42,13.42,0,0,0-3.35,3.3,52,52,0,0,0-8.55,17.83c-1.05,3.91-2.52,4.86-5.43,4.92-5.52.13-19.14.87-24.63,1.72-2.65.41-4,2.94-4.27,6.33-.2,3.17.79,5.75,3.27,6.9a51.79,51.79,0,0,0,8.59,2.85c2.43.64,4.08-.65,5.26-3.56.2-.5.5-1.29.78-1.31,1.21-.08,10.51.07,11.72.14-.1,1.19-.19,2.38-.29,3.57,0,.3-.13.59-.16.89-.81,8-1.6,16.1-2.44,24.14a11.44,11.44,0,0,1-.77,3.38,56.68,56.68,0,0,1-9.68,15.06c-6,6.61-12.77,10.37-20.66,9.64-2.77-.32-4.66-3.9-5.21-8.23-.6-4.8-.75-9.69-1-14.54-.59-12.3-6.77-16.09-15.59-9-4.1,3.27-7.56,7.61-11.22,11.59-1.51,1.64-2.76,3.6-4.13,5.41l-.68-.33c1.3-4.82,2.45-9.7,3.93-14.44,1.17-3.76.37-6.14-2.95-7.28s-6.06.14-7.59,3.94c-.75,1.87-1.23,3.88-2.07,5.69A26.21,26.21,0,0,1,179,135S161.31,156.12,148,156.12c-6.4,0-12-2.24-12.15-10.39A14.46,14.46,0,0,1,136,143q1.15-6.75,2.39-13.49c.61-3.36-.28-6.39-2.33-7.78-2.26-1.53-4.61-.7-6.21,2.22,0,0-5.25,17.2-3.16,27.91,1.19,6.12,3.43,11,7.54,14.15a15.6,15.6,0,0,0,9.47,3.3h.09C162.69,169.32,178.6,151.29,178.6,151.29ZM130,105.89c.82-5.53,5.36-9.85,10.2-9.72,4.48.12,7.5,3.51,6.82,7.65-1,6.19-5.13,10.13-10.48,10C131.86,113.79,129.27,110.63,130,105.89Z"/><path class="cls-2" d="M330.66,116.51c3.76-21-4.61-48.19-39.13-80.3-45.32-42.13-105.6-19.8-153.38,19.14,14.52-4.12,32.18-3.31,50-2.69l-3.62,4a180.6,180.6,0,0,0,32.24-4.53c5.81-1.17,12.72-3.46,20.33-5.79l-2,4.56a94.15,94.15,0,0,1,35.64-11.47,74.67,74.67,0,0,1,7.63,0c-41-28.58-106.16,1.78-106.16,1.78,70.05-37.51,109.17-5.51,114.53-.61,0,0,43.24,34.6,39.9,75.64,0,0-3.55,26.38-21.18,42.18C305.51,158.41,325.92,143.09,330.66,116.51Z"/><path class="cls-3" d="M295.09,34.78h0Z"/><path class="cls-4" d="M382.81,40.55c-33.09-29.88-58.3-34.89-87.16-6.11a68.23,68.23,0,0,1,68.13-.56s-36.13-16.75-65,2.88c4.95,3.42,5.17,7.49,10.67,9.91C316,49.57,323,52.09,328.51,53c-.84-2.5-.36-7.15-5-11.48C336.31,44.21,354.14,45.6,382.81,40.55Z"/><path class="cls-5" d="M272.17,17.67c9.14,3,22,13,22,13C297,22.45,295.75,11,284.62,4.13s-36-3-42.9-3.14C241.72,1,246.83,9.32,272.17,17.67Z"/></g></g></svg>